# File created by Blade
# Date/Time:  Wed Sep 24 19:53:44 2014
# Frame Rate: 120.000 fps
#------------------------------------------------------
:FULLY-SPECIFIED
:DEGREES
3895
root -6.121046 32.817596 -3.792762 10.411321 20.216784 0.405951
Spine -12.376778 28.736515 0.104025
Head -6.564888 -40.478179 7.991258
LeftShoulder -23.484560 20.550284 15.486744
LeftArm -7.371266 -74.007994 -34.914302
LeftForeArm -58.825113 -0.000000 56.463990
LeftHand -9.370433 -0.000000 -10.210276
LeftHandThumb1 -26.253704 0.000000 33.147579
RightShoulder -22.204306 9.070917 -22.510372
RightArm -20.948331 -5.479933 80.501538
RightForeArm -23.353989 -0.000000 23.847970
RightHand -8.410216 0.000000 6.910749
RightHandThumb1 -24.326973 -0.000000 -32.862282
LeftUpLeg -6.344965 -6.889251 6.130292
LeftLeg -2.208473 -0.000000 0.000000
LeftFoot -7.486102 1.619142 -19.152800
LeftToeBase 11.693565 -0.000000 -0.000000
RightUpLeg -1.207169 -20.443301 -1.899938
RightLeg -0.140934 -0.000000 0.000000
RightFoot -7.460008 -8.801615 -10.813611
RightToeBase -0.533583 -0.000000 0.000000
3896
root -6.121801 32.817985 -3.804862 10.421465 20.228140 0.405414
Spine -12.416717 28.756809 0.052992
Head -6.551994 -40.463951 8.019982
LeftShoulder -23.530328 20.727557 15.272416
LeftArm -6.995152 -74.967293 -35.346214
LeftForeArm -58.930240 -0.000000 59.537667
LeftHand -9.218484 0.000000 -10.890058
LeftHandThumb1 -26.253704 0.000000 33.147579
RightShoulder -22.165474 9.059568 -22.510455
RightArm -20.926602 -5.503018 80.492069
RightForeArm -23.310847 -0.000000 23.864637
RightHand -8.386942 0.000000 6.866583
RightHandThumb1 -24.326973 -0.000000 -32.862282
LeftUpLeg -6.375362 -6.876856 6.129043
LeftLeg -2.215329 -0.000000 0.000000
LeftFoot -7.461299 1.605994 -19.136268
LeftToeBase 11.650336 -0.000000 -0.000000
RightUpLeg -1.235887 -20.527060 -1.889329
RightLeg -0.151699 -0.000000 0.000000
RightFoot -7.453883 -8.740033 -10.852533
RightToeBase -0.535857 -0.000000 0.000000
3897
root -6.125354 32.818800 -3.820978 10.454268 20.230409 0.387584
Spine -12.483356 28.776904 0.006126
Head -6.527283 -40.436639 8.033753
LeftShoulder -23.523894 20.754030 15.126171
LeftArm -7.197999 -75.734464 -35.250181
LeftForeArm -59.432233 -0.000000 62.631833
LeftHand -9.000068 0.000000 -11.520014
LeftHandThumb1 -26.253704 0.000000 33.147579
RightShoulder -22.123905 9.067863 -22.515439
RightArm -20.916599 -5.506023 80.473914
RightForeArm -23.307011 -0.000000 23.894173
RightHand -8.393900 -0.000000 6.862408
RightHandThumb1 -24.326973 -0.000000 -32.862282
LeftUpLeg -6.448301 -6.837924 6.147708
LeftLeg -2.208842 -0.000000 0.000000
LeftFoot -7.430140 1.567283 -19.147255
LeftToeBase 11.670155 -0.000000 -0.000000
RightUpLeg -1.310717 -20.574179 -1.848467
RightLeg -0.149420 -0.000000 0.000000
RightFoot -7.439488 -8.706898 -10.867651
RightToeBase -0.535473 -0.000000 0.000000
3898
root -6.125290 32.820148 -3.836303 10.474008 20.232431 0.393683
Spine -12.535254 28.763472 -0.057792
Head -6.459622 -40.385813 8.067575
LeftShoulder -23.530269 20.736742 15.003985
LeftArm -7.499409 -76.544497 -35.112976
LeftForeArm -59.859957 0.000000 65.904590
LeftHand -8.726640 -0.000000 -12.075408
LeftHandThumb1 -26.253704 0.000000 33.147579
RightShoulder -22.048679 9.087071 -22.490000
RightArm -20.895160 -5.542124 80.457824
RightForeArm -23.279057 -0.000000 23.901167
RightHand -8.399587 -0.000000 6.815603
RightHandThumb1 -24.326973 -0.000000 -32.862282
LeftUpLeg -6.490420 -6.807530 6.133157
LeftLeg -2.213790 -0.000000 0.000000
LeftFoot -7.391376 1.557034 -19.125810
LeftToeBase 11.673714 -0.000000 -0.000000
RightUpLeg -1.356162 -20.609656 -1.845058
RightLeg -0.152708 -0.000000 0.000000
RightFoot -7.421365 -8.679382 -10.901419
RightToeBase -0.530326 -0.000000 0.000000
3899
root -6.125886 32.821623 -3.853280 10.500828 20.233122 0.390086
Spine -12.592344 28.739282 -0.094513
Head -6.348332 -40.321254 8.002391
LeftShoulder -23.583347 20.833592 14.779166
LeftArm -7.480857 -77.450162 -35.311028
LeftForeArm -60.229260 -0.000000 69.292957
LeftHand -8.456234 -0.000000 -12.732147
LeftHandThumb1 -26.253704 0.000000 33.147579
RightShoulder -21.970520 9.115856 -22.496779
RightArm -20.888456 -5.555321 80.451450
RightForeArm -23.242511 -0.000000 23.940876
RightHand -8.472446 -0.000000 6.781384
RightHandThumb1 -24.326973 -0.000000 -32.862282
LeftUpLeg -6.559607 -6.743661 6.124890
LeftLeg -2.189595 -0.000000 0.000000
LeftFoot -7.361001 1.515026 -19.099900
LeftToeBase 11.691261 -0.000000 -0.000000
RightUpLeg -1.414437 -20.632818 -1.828233
RightLeg -0.160723 -0.000000 0.000000
RightFoot -7.400079 -8.663138 -10.928323
RightToeBase -0.495505 -0.000000 0.000000
